<svg width="21" height="20" viewBox="0 0 21 20" fill="none" xmlns="http://www.w3.org/2000/svg">
<g opacity="0.7">
<path d="M12.7914 13.8575C12.7399 13.1574 12.7254 12.455 12.7481 11.7533L12.7472 11.7842C13.3743 11.1341 13.7654 10.2926 13.8581 9.39417L13.8597 9.37667C14.1422 9.35333 14.5881 9.07833 14.7181 7.98833C14.7573 7.80061 14.7425 7.60561 14.6754 7.42595C14.6083 7.2463 14.4916 7.08936 14.3389 6.97333L14.3364 6.97167C14.7964 5.58833 15.7514 1.30833 12.5689 0.866667C12.2414 0.291667 11.4031 0 10.3131 0C5.95224 0.08 5.42641 3.2925 6.37974 6.97167C6.22581 7.08875 6.1084 7.24725 6.04125 7.42862C5.97411 7.60999 5.96 7.80674 6.00057 7.99583L5.99974 7.98917C6.13307 9.0775 6.57557 9.35417 6.85807 9.3775C6.95717 10.286 7.36071 11.1342 8.00307 11.7842C8.0242 12.4981 8.00806 13.2127 7.95474 13.925L7.95891 13.8575C7.09391 16.1775 1.27057 15.5258 1.00391 20H19.7189C19.4506 15.5258 13.6539 16.1775 12.7906 13.8575H12.7914Z" fill="white"/>
</g>
</svg>
