<svg width="22" height="22" viewBox="0 0 22 22" fill="none" xmlns="http://www.w3.org/2000/svg">
<path d="M21.1843 10.8444L11.5302 1.19731C11.4607 1.12766 11.3781 1.07241 11.2872 1.03471C11.1963 0.997006 11.0989 0.9776 11.0005 0.9776C10.9021 0.9776 10.8046 0.997006 10.7137 1.03471C10.6228 1.07241 10.5403 1.12766 10.4708 1.19731L0.816613 10.8444C0.535356 11.1257 0.375977 11.5077 0.375977 11.9062C0.375977 12.7336 1.04865 13.4062 1.87602 13.4062H2.89323V20.29C2.89323 20.7049 3.22839 21.04 3.64325 21.04H9.50043V15.7899H12.1255V21.04H18.3577C18.7726 21.04 19.1077 20.7049 19.1077 20.29V13.4062H20.1249C20.5234 13.4062 20.9054 13.2492 21.1867 12.9656C21.7703 12.3796 21.7703 11.4304 21.1843 10.8444V10.8444Z" fill="#2659C3"/>
</svg>
