<svg width="25" height="24" viewBox="0 0 25 24" fill="none" xmlns="http://www.w3.org/2000/svg">
<g clip-path="url(#clip0_1_3961)">
<path d="M23.0988 0.906398C22.4946 0.302041 21.7706 0 20.9271 0H3.08317C2.23938 0 1.51556 0.302151 0.911202 0.906398C0.306955 1.51048 0.00491333 2.23442 0.00491333 3.07804V20.9218C0.00491333 21.7653 0.3069 22.4894 0.911202 23.0935C1.51556 23.6977 2.23955 24 3.08317 24H20.9269C21.7702 24 22.4945 23.6977 23.0987 23.0935C23.703 22.4894 24.0048 21.7653 24.0048 20.9218V3.07804C24.0047 2.23425 23.703 1.5107 23.0988 0.906398ZM8.62237 8.64832C9.56499 7.737 10.6979 7.28112 12.0208 7.28112C13.3539 7.28112 14.4919 7.737 15.4347 8.64832C16.3776 9.55981 16.8487 10.6615 16.8487 11.9531C16.8487 13.2446 16.3776 14.3463 15.4347 15.2575C14.4919 16.1692 13.3543 16.625 12.0208 16.625C10.6979 16.625 9.56516 16.1688 8.62237 15.2575C7.67952 14.3462 7.20815 13.2446 7.20815 11.9531C7.20815 10.6615 7.67952 9.55986 8.62237 8.64832ZM21.2865 20.2814C21.2865 20.5521 21.1925 20.7785 21.0051 20.9609C20.8173 21.1432 20.5936 21.2343 20.333 21.2343H3.63012C3.35933 21.2343 3.13259 21.1432 2.95046 20.9609C2.76805 20.7789 2.67693 20.5521 2.67693 20.2814V10.1561H4.87999C4.67175 10.8124 4.5676 11.4948 4.5676 12.203C4.5676 14.2034 5.29668 15.9089 6.75501 17.3206C8.2135 18.7318 9.96867 19.4377 12.0207 19.4377C13.3749 19.4377 14.6248 19.1147 15.771 18.4689C16.9169 17.8227 17.8226 16.9453 18.4897 15.8359C19.1564 14.7264 19.4898 13.5154 19.4898 12.203C19.4898 11.4949 19.3853 10.8126 19.177 10.1561H21.2866V20.2815H21.2865V20.2814ZM21.2865 6.32793C21.2865 6.63002 21.1823 6.88527 20.9737 7.09357C20.7654 7.30202 20.5103 7.40611 20.2081 7.40611H17.4894C17.1875 7.40611 16.932 7.30197 16.7238 7.09357C16.5155 6.88527 16.4114 6.63002 16.4114 6.32793V3.75004C16.4114 3.45834 16.5155 3.20578 16.7238 2.99217C16.9321 2.77868 17.1876 2.6718 17.4894 2.6718H20.2081C20.5103 2.6718 20.7655 2.77863 20.9737 2.99217C21.1823 3.20578 21.2865 3.45834 21.2865 3.75004V6.32793Z" fill="#808080"/>
</g>
<defs>
<clipPath id="clip0_1_3961">
<rect width="24" height="24" fill="white" transform="translate(0.00390625)"/>
</clipPath>
</defs>
</svg>
