<svg width="19" height="25" viewBox="0 0 19 25" fill="none" xmlns="http://www.w3.org/2000/svg">
<path d="M15.7518 6.00834H13.504L13.5046 2.25824C13.5046 1.01602 12.4968 0.00817871 11.2545 0.00817871H6.75442C5.51221 0.00817871 4.50437 1.01602 4.50437 2.25824L4.50146 6.00834H2.2514C1.00918 6.00834 0.00134277 7.01617 0.00134277 8.25839V20.2587C0.00134277 21.5009 1.00918 22.5088 2.2514 22.5088H3.00376L3.00142 23.2588C3.00142 23.676 3.33424 24.0088 3.75144 24.0088H5.25148C5.66868 24.0088 6.0015 23.676 6.0015 23.2588L6.00619 22.5088H12.0063L12.0017 23.2588C12.0017 23.6748 12.3356 24.0088 12.7517 24.0088H14.2517C14.6677 24.0088 15.0017 23.6748 15.0017 23.2588L15.0041 22.5088H15.7518C16.994 22.5088 18.0018 21.5009 18.0018 20.2587V8.25839C18.0018 7.01617 16.994 6.00834 15.7518 6.00834ZM6.75621 2.25824H11.2563V6.00834H6.75621V2.25824V2.25824ZM14.2517 18.0086H3.75144C3.33893 18.0086 3.00142 17.6711 3.00142 17.2586C3.00142 16.8461 3.33893 16.5086 3.75144 16.5086H14.2517C14.6643 16.5086 15.0017 16.8461 15.0017 17.2586C15.0017 17.6711 14.6642 18.0086 14.2517 18.0086ZM14.2517 12.0085H3.75144C3.33893 12.0085 3.00142 11.671 3.00142 11.2585C3.00142 10.846 3.33893 10.5085 3.75144 10.5085H14.2517C14.6642 10.5085 15.0017 10.846 15.0017 11.2585C15.0017 11.671 14.6642 12.0085 14.2517 12.0085Z" fill="#2659C3"/>
</svg>
