<svg width="21" height="20" viewBox="0 0 21 20" fill="none" xmlns="http://www.w3.org/2000/svg">
<g opacity="0.7" clip-path="url(#clip0_1_3903)">
<path d="M17.5039 17.5L13.7655 13.755L17.5039 17.5ZM15.8372 8.75002C15.8372 10.6286 15.0909 12.4303 13.7625 13.7587C12.4342 15.0871 10.6325 15.8334 8.75387 15.8334C6.87525 15.8334 5.07358 15.0871 3.74519 13.7587C2.41681 12.4303 1.67053 10.6286 1.67053 8.75002C1.67053 6.8714 2.41681 5.06973 3.74519 3.74135C5.07358 2.41296 6.87525 1.66669 8.75387 1.66669C10.6325 1.66669 12.4342 2.41296 13.7625 3.74135C15.0909 5.06973 15.8372 6.8714 15.8372 8.75002V8.75002Z" stroke="white" stroke-width="2" stroke-linecap="round"/>
</g>
<defs>
<clipPath id="clip0_1_3903">
<rect width="20" height="20" fill="white" transform="translate(0.00390625)"/>
</clipPath>
</defs>
</svg>
