<svg width="25" height="25" viewBox="0 0 25 25" fill="none" xmlns="http://www.w3.org/2000/svg">
<path d="M21.2875 8.77578L15.3367 7.91093L12.6766 2.51797C12.6039 2.37031 12.4844 2.25078 12.3367 2.17812C11.9664 1.99531 11.5164 2.14765 11.3312 2.51797L8.67109 7.91093L2.72031 8.77578C2.55625 8.79922 2.40625 8.87656 2.2914 8.99375C2.15256 9.13645 2.07606 9.32843 2.07869 9.52752C2.08133 9.7266 2.1629 9.91649 2.30547 10.0555L6.61094 14.2531L5.59375 20.1805C5.56989 20.3183 5.58515 20.4602 5.63779 20.5898C5.69043 20.7195 5.77835 20.8318 5.89156 20.914C6.00478 20.9962 6.13878 21.0451 6.27836 21.055C6.41793 21.065 6.55751 21.0356 6.68125 20.9703L12.0039 18.1719L17.3266 20.9703C17.4719 21.0477 17.6406 21.0734 17.8023 21.0453C18.2102 20.975 18.4844 20.5883 18.4141 20.1805L17.3969 14.2531L21.7023 10.0555C21.8195 9.94062 21.8969 9.79062 21.9203 9.62656C21.9836 9.2164 21.6977 8.83672 21.2875 8.77578Z" fill="black"/>
</svg>
