<svg width="21" height="19" viewBox="0 0 21 19" fill="none" xmlns="http://www.w3.org/2000/svg">
<path d="M15.0027 16.0089H17.0028V8.00858H11.0025V16.0089H13.0026V10.0087H15.0027V16.0089ZM1.00212 16.0089V1.00828C1.00212 0.743054 1.10748 0.48869 1.29502 0.301145C1.48257 0.113601 1.73693 0.00823975 2.00216 0.00823975H16.0028C16.268 0.00823975 16.5223 0.113601 16.7099 0.301145C16.8974 0.48869 17.0028 0.743054 17.0028 1.00828V6.00849H19.0029V16.0089H20.0029V18.009H0.0020752V16.0089H1.00212ZM5.00229 8.00858V10.0087H7.00237V8.00858H5.00229ZM5.00229 12.0087V14.0088H7.00237V12.0087H5.00229ZM5.00229 4.00841V6.00849H7.00237V4.00841H5.00229Z" fill="#2659C3"/>
</svg>
