<svg width="25" height="24" viewBox="0 0 25 24" fill="none" xmlns="http://www.w3.org/2000/svg">
<g clip-path="url(#clip0_1_3962)">
<path d="M24.0039 4.5585C23.1114 4.95 22.1604 5.2095 21.1689 5.3355C22.1889 4.7265 22.9674 3.7695 23.3334 2.616C22.3824 3.183 21.3324 3.5835 20.2134 3.807C19.3104 2.8455 18.0234 2.25 16.6194 2.25C13.8954 2.25 11.7024 4.461 11.7024 7.1715C11.7024 7.5615 11.7354 7.9365 11.8164 8.2935C7.72591 8.094 4.10641 6.1335 1.67491 3.147C1.25041 3.8835 1.00141 4.7265 1.00141 5.634C1.00141 7.338 1.87891 8.8485 3.18691 9.723C2.39641 9.708 1.62091 9.4785 0.963906 9.117C0.963906 9.132 0.963906 9.1515 0.963906 9.171C0.963906 11.562 2.66941 13.548 4.90591 14.0055C4.50541 14.115 4.06891 14.1675 3.61591 14.1675C3.30091 14.1675 2.98291 14.1495 2.68441 14.0835C3.32191 16.032 5.13091 17.4645 7.28191 17.511C5.60791 18.8205 3.48241 19.6095 1.18141 19.6095C0.777906 19.6095 0.390906 19.5915 0.00390625 19.542C2.18341 20.9475 4.76641 21.75 7.55191 21.75C16.6059 21.75 21.5559 14.25 21.5559 7.749C21.5559 7.5315 21.5484 7.3215 21.5379 7.113C22.5144 6.42 23.3349 5.5545 24.0039 4.5585Z" fill="#808080"/>
</g>
<defs>
<clipPath id="clip0_1_3962">
<rect width="24" height="24" fill="white" transform="translate(0.00390625)"/>
</clipPath>
</defs>
</svg>
