<svg width="25" height="24" viewBox="0 0 25 24" fill="none" xmlns="http://www.w3.org/2000/svg">
<g clip-path="url(#clip0_1_3963)">
<path d="M22.9839 5.34C22.3329 4.182 21.6264 3.969 20.1879 3.888C18.7509 3.7905 15.1374 3.75 12.0069 3.75C8.87041 3.75 5.25541 3.7905 3.81991 3.8865C2.38441 3.969 1.67641 4.1805 1.01941 5.34C0.348906 6.4965 0.00390625 8.4885 0.00390625 11.9955C0.00390625 11.9985 0.00390625 12 0.00390625 12C0.00390625 12.003 0.00390625 12.0045 0.00390625 12.0045V12.0075C0.00390625 15.4995 0.348906 17.5065 1.01941 18.651C1.67641 19.809 2.38291 20.019 3.81841 20.1165C5.25541 20.2005 8.87041 20.25 12.0069 20.25C15.1374 20.25 18.7509 20.2005 20.1894 20.118C21.6279 20.0205 22.3344 19.8105 22.9854 18.6525C23.6619 17.508 24.0039 15.501 24.0039 12.009C24.0039 12.009 24.0039 12.0045 24.0039 12.0015C24.0039 12.0015 24.0039 11.9985 24.0039 11.997C24.0039 8.4885 23.6619 6.4965 22.9839 5.34ZM9.00391 16.5V7.5L16.5039 12L9.00391 16.5Z" fill="#808080"/>
</g>
<defs>
<clipPath id="clip0_1_3963">
<rect width="24" height="24" fill="white" transform="translate(0.00390625)"/>
</clipPath>
</defs>
</svg>
